<svg width="577" height="577" viewBox="0 0 577 577" fill="none" xmlns="http://www.w3.org/2000/svg">
<mask id="path-1-inside-1_26_2" fill="white">
<path d="M71 198C71 192.477 75.4772 188 81 188H496C501.523 188 506 192.477 506 198V380C506 385.523 501.523 390 496 390H81C75.4771 390 71 385.523 71 380V198Z"/>
</mask>
<path d="M71 198C71 192.477 75.4772 188 81 188H496C501.523 188 506 192.477 506 198V380C506 385.523 501.523 390 496 390H81C75.4771 390 71 385.523 71 380V198Z" fill="white" fill-opacity="0.22"/>
<path d="M71 198C71 181.431 84.4315 168 101 168H476C492.569 168 506 181.431 506 198V208C506 208 501.523 208 496 208H81C75.4772 208 71 208 71 208V198ZM506 380C506 396.569 492.569 410 476 410H101C84.4315 410 71 396.569 71 380V370C71 370 75.4772 370 81 370H496C501.523 370 506 370 506 370V380ZM71 390V188V390ZM506 188V390V188Z" fill="white" fill-opacity="0.54" mask="url(#path-1-inside-1_26_2)"/>
<rect x="279" width="20" height="188" fill="white" fill-opacity="0.38"/>
<rect x="279" y="390" width="20" height="187" fill="white" fill-opacity="0.38"/>
<path d="M108.624 335V245.4H152.4C163.664 245.4 172.112 247.533 177.744 251.8C183.461 256.067 186.32 261.699 186.32 268.696C186.32 273.389 185.168 277.485 182.864 280.984C180.56 284.397 177.403 287.043 173.392 288.92C169.381 290.797 164.773 291.736 159.568 291.736L162 286.488C167.632 286.488 172.624 287.427 176.976 289.304C181.328 291.096 184.699 293.784 187.088 297.368C189.563 300.952 190.8 305.347 190.8 310.552C190.8 318.232 187.771 324.248 181.712 328.6C175.653 332.867 166.736 335 154.96 335H108.624ZM129.232 319.384H153.424C158.8 319.384 162.853 318.531 165.584 316.824C168.4 315.032 169.808 312.216 169.808 308.376C169.808 304.621 168.4 301.848 165.584 300.056C162.853 298.179 158.8 297.24 153.424 297.24H127.696V282.136H149.84C154.875 282.136 158.715 281.283 161.36 279.576C164.091 277.784 165.456 275.096 165.456 271.512C165.456 268.013 164.091 265.411 161.36 263.704C158.715 261.912 154.875 261.016 149.84 261.016H129.232V319.384ZM206.499 335V245.4H227.235V318.104H272.163V335H206.499ZM283.749 335V245.4H304.485V335H283.749ZM355.189 336.536C348.021 336.536 341.152 335.597 334.581 333.72C328.01 331.757 322.72 329.24 318.709 326.168L325.749 310.552C329.589 313.283 334.112 315.544 339.317 317.336C344.608 319.043 349.941 319.896 355.317 319.896C359.413 319.896 362.698 319.512 365.173 318.744C367.733 317.891 369.61 316.739 370.805 315.288C372 313.837 372.597 312.173 372.597 310.296C372.597 307.907 371.658 306.029 369.781 304.664C367.904 303.213 365.429 302.061 362.357 301.208C359.285 300.269 355.872 299.416 352.117 298.648C348.448 297.795 344.736 296.771 340.981 295.576C337.312 294.381 333.941 292.845 330.869 290.968C327.797 289.091 325.28 286.616 323.317 283.544C321.44 280.472 320.501 276.547 320.501 271.768C320.501 266.648 321.866 261.997 324.597 257.816C327.413 253.549 331.594 250.179 337.141 247.704C342.773 245.144 349.813 243.864 358.261 243.864C363.893 243.864 369.44 244.547 374.901 245.912C380.362 247.192 385.184 249.155 389.365 251.8L382.965 267.544C378.784 265.155 374.602 263.405 370.421 262.296C366.24 261.101 362.144 260.504 358.133 260.504C354.122 260.504 350.837 260.973 348.277 261.912C345.717 262.851 343.882 264.088 342.773 265.624C341.664 267.075 341.109 268.781 341.109 270.744C341.109 273.048 342.048 274.925 343.925 276.376C345.802 277.741 348.277 278.851 351.349 279.704C354.421 280.557 357.792 281.411 361.461 282.264C365.216 283.117 368.928 284.099 372.597 285.208C376.352 286.317 379.765 287.811 382.837 289.688C385.909 291.565 388.384 294.04 390.261 297.112C392.224 300.184 393.205 304.067 393.205 308.76C393.205 313.795 391.797 318.403 388.981 322.584C386.165 326.765 381.941 330.136 376.309 332.696C370.762 335.256 363.722 336.536 355.189 336.536ZM436.814 336.536C429.646 336.536 422.777 335.597 416.206 333.72C409.635 331.757 404.345 329.24 400.334 326.168L407.374 310.552C411.214 313.283 415.737 315.544 420.942 317.336C426.233 319.043 431.566 319.896 436.942 319.896C441.038 319.896 444.323 319.512 446.798 318.744C449.358 317.891 451.235 316.739 452.43 315.288C453.625 313.837 454.222 312.173 454.222 310.296C454.222 307.907 453.283 306.029 451.406 304.664C449.529 303.213 447.054 302.061 443.982 301.208C440.91 300.269 437.497 299.416 433.742 298.648C430.073 297.795 426.361 296.771 422.606 295.576C418.937 294.381 415.566 292.845 412.494 290.968C409.422 289.091 406.905 286.616 404.942 283.544C403.065 280.472 402.126 276.547 402.126 271.768C402.126 266.648 403.491 261.997 406.222 257.816C409.038 253.549 413.219 250.179 418.766 247.704C424.398 245.144 431.438 243.864 439.886 243.864C445.518 243.864 451.065 244.547 456.526 245.912C461.987 247.192 466.809 249.155 470.99 251.8L464.59 267.544C460.409 265.155 456.227 263.405 452.046 262.296C447.865 261.101 443.769 260.504 439.758 260.504C435.747 260.504 432.462 260.973 429.902 261.912C427.342 262.851 425.507 264.088 424.398 265.624C423.289 267.075 422.734 268.781 422.734 270.744C422.734 273.048 423.673 274.925 425.55 276.376C427.427 277.741 429.902 278.851 432.974 279.704C436.046 280.557 439.417 281.411 443.086 282.264C446.841 283.117 450.553 284.099 454.222 285.208C457.977 286.317 461.39 287.811 464.462 289.688C467.534 291.565 470.009 294.04 471.886 297.112C473.849 300.184 474.83 304.067 474.83 308.76C474.83 313.795 473.422 318.403 470.606 322.584C467.79 326.765 463.566 330.136 457.934 332.696C452.387 335.256 445.347 336.536 436.814 336.536Z" fill="white"/>
</svg>
